<?xml version="1.0" encoding="utf-8"?>
<!-- Generator: Adobe Illustrator 27.7.0, SVG Export Plug-In . SVG Version: 6.00 Build 0)  -->
<svg version="1.1" id="Layer_1" xmlns="http://www.w3.org/2000/svg" xmlns:xlink="http://www.w3.org/1999/xlink" x="0px" y="0px"
	 viewBox="0 0 200 153" style="enable-background:new 0 0 200 153;" xml:space="preserve">
<style type="text/css">
	.st0{fill:#BAC0D8;}
	.st1{fill:#3C3082;}
	.st2{fill:#DDDFEC;}
	.st3{fill:#564EBD;}
	.st4{fill:#E26C48;}
	.st5{fill:#42CCB2;}
	.st6{fill:#3B3081;}
	.st7{fill:#51509D;}
</style>
<path class="st0" d="M128.6,2c3.7,0.5,7.2,1.4,10.6,2.7c8,3.1,14.6,8.2,19.7,15.1c4.5,6.2,7.2,13.5,7.9,21c0,0,0,0.1-0.1,0.1h-1.5
	l0,0c-0.3-2.2-0.7-4.3-1.2-6.4c-2-7.4-5.7-13.8-11.2-19.1c-3.6-3.5-7.7-6.3-12.1-8.3c-4.3-1.9-8.8-3.1-13.7-3.6
	c-7.1-0.7-13.9,0.3-20.4,3.1c-4.3,1.8-8.3,4.4-11.8,7.6c-3.3,3-6.2,6.5-8.6,10.5c0,0,0,0-0.1,0L84.8,24c0,0,0-0.1,0-0.2l0,0
	c1.5-2.4,3.1-4.7,4.9-6.8c4.8-5.6,11-10,17.9-12.7c6.7-2.6,13.7-3.3,21.1-2.4L128.6,2z"/>
<circle class="st1" cx="131.5" cy="27.1" r="4"/>
<path class="st0" d="M30.4,55.9c2.7-8,6.6-15.7,13-21.3c3-2.7,6.6-4.7,10.5-6.1c7.2-2.5,14.9-2.6,22.5-1.8l0,0l0,0
	c-0.2,0.5-0.4,1-0.6,1.4c0,0,0,0-0.1,0c-0.2,0-0.4,0-0.6,0c-2.8-0.1-5.3-0.2-7.6-0.3c-3.6,0-7.1,0.4-10.6,1.3
	c-5.7,1.5-10.6,4.4-14.6,8.6c-2.9,3-5.2,6.7-7.1,10.5c-1.2,2.5-2.3,5.2-3.2,8c0,0,0,0-0.1,0l0,0l-1.4-0.5c0,0,0,0,0-0.1L30.4,55.9z"
	/>
<path class="st2" d="M91.4,29.7l33-3.3l0,0l0,0V28l0,0l-32.8,3.3l0,0l-0.2-1.5C91.4,29.8,91.4,29.8,91.4,29.7
	C91.4,29.7,91.4,29.7,91.4,29.7z"/>
<circle class="st3" cx="82.3" cy="30.5" r="4"/>
<path class="st2" d="M138.5,28.4l22.4,14.2c0,0,0,0,0,0.1l0,0l-0.8,1.3c0,0,0,0-0.1,0l0,0l-22.1-14c0,0,0,0,0-0.1l0.5-1.5
	C138.4,28.4,138.4,28.4,138.5,28.4L138.5,28.4L138.5,28.4z"/>
<path class="st0" d="M88.9,32.7l17.3,9.7c0,0,0,0,0,0.1l-0.7,1.4c0,0,0,0-0.1,0l0,0l-17.3-9.7c0,0,0,0,0-0.1L88.9,32.7
	C88.8,32.7,88.8,32.7,88.9,32.7L88.9,32.7z"/>
<path class="st0" d="M132.5,34.1l5,39.9l0,0l-1.6,0.2l0,0l0,0l-5-40.1l0,0H132.5L132.5,34.1z"/>
<path class="st2" d="M64.5,44.2l12.4-9.1H77l0.9,1.2v0.1l-12.4,9.1h-0.1L64.5,44.2L64.5,44.2z"/>
<path class="st2" d="M128.6,79.2L83.5,37.4c0,0,0,0,0-0.1c0-0.1,0-0.1,0,0l1.4-0.5c0.2,0,0.4,0,0.6,0.1l44,40.8c0,0,0,0.1,0,0.2
	l-0.9,1.2c0,0-0.1,0-0.2,0l0,0L128.6,79.2z"/>
<circle class="st4" cx="111.2" cy="45.9" r="3"/>
<circle class="st5" cx="166" cy="48" r="4"/>
<circle class="st5" cx="58.5" cy="49.7" r="5.1"/>
<path class="st2" d="M100.7,48c-0.2,0-0.5,0-0.7,0c-0.5,0-0.8,0.1-1.2-0.2c-0.4-0.3-0.7-0.7-1.1-1.2l0,0l0,0l7.3-0.7h0.1l0.2,1.5
	c0,0,0,0.1-0.1,0.1l0,0C103.7,47.7,102.1,47.8,100.7,48L100.7,48z"/>
<path class="st0" d="M130.9,48.2h-14c0,0-0.1,0,0-0.1l0.3-1.3c0-0.2,0.2-0.3,0.4-0.3h13.2c0,0.1,0,0.1,0,0.2l0.2,1.5l0,0l0,0
	L130.9,48.2z"/>
<path class="st0" d="M135.5,46.6l23.5,0.2l0,0l0,0v1.5c-0.1,0-0.2,0.1-0.2,0.1c-7.6,0-15.1-0.1-22.6-0.2c-0.3,0-0.6,0-0.7-0.4
	c0-0.4-0.1-0.8-0.1-1.2C135.4,46.6,135.4,46.6,135.5,46.6z"/>
<path class="st2" d="M66.4,51.2v-1.5c0.1,0,0.2-0.1,0.2-0.1c6.9-0.7,14.1-1.4,21.8-2.1c0.7,0,1.5-0.2,2.3-0.2c0.7,0,1.1,0.2,1.6,0.8
	c0.2,0.2,0.4,0.4,0.6,0.6l0,0l0,0c0,0,0,0-0.1,0C84,49.6,75.2,50.4,66.4,51.2L66.4,51.2L66.4,51.2L66.4,51.2z"/>
<path class="st0" d="M197.2,83.7c0.5-6.5-1-13.1-4.5-18.6c-2.1-3.3-4.7-6.1-7.9-8.5c-3.6-2.7-7.8-4.7-12.2-6c0,0,0,0,0-0.1L173,49
	l0,0c6.2,1.9,12,5,16.6,9.6c6.3,6.3,9.8,15.3,9.3,24.2c-0.5,8.4-3.4,15.9-8.7,22.3c-3.5,4.3-7.6,7.7-12.3,10.4h-0.1l0,0l-0.4-1.4
	v-0.2c4.6-2.7,8.6-6.1,11.9-10.3c4.5-5.7,7.4-12.5,7.9-19.7V83.7z"/>
<path class="st2" d="M130.7,76.9l-17-25.5c0,0,0,0,0-0.1l0,0l1.3-0.8c0,0,0,0,0.1,0l17,25.6c0,0,0,0,0,0.1l0,0l-1.3,0.8
	c0,0,0,0-0.1,0V76.9z"/>
<path class="st2" d="M140.7,76.9l19.7-24.6h0.1l0,0l1.1,1.1c0,0,0,0,0,0.1l-19.8,24.6h-0.1l0,0L140.7,76.9
	C140.7,77,140.7,77,140.7,76.9z"/>
<path class="st2" d="M35.4,60.2l15.8-7h0.1l0.8,1.3v0.1l0,0L36,61.8h-0.1l0,0L35.4,60.2L35.4,60.2L35.4,60.2z"/>
<path class="st0" d="M138.8,108.5l24.4-54l0,0l1.5,0.4l0,0l0,0l-24.5,54.2c0,0,0,0-0.1,0l0,0l-1.4-0.6c0,0,0,0,0-0.1l0,0
	L138.8,108.5z"/>
<path class="st2" d="M167.2,54.9l1.5-0.5c0,0,0,0,0.1,0l0,0l3.8,55.8l0,0H171l0,0L167.2,54.9C167.2,54.9,167.2,54.9,167.2,54.9z"/>
<path class="st2" d="M27,109l27-52.5c0,0,0,0,0.1,0l0,0l1.4,0.7c0,0,0,0,0,0.1l-27,52.5c0,0,0,0-0.1,0l-1.4-0.7
	C27,109.1,27,109.1,27,109C27,109,27,109,27,109z"/>
<circle class="st3" cx="28.8" cy="62.9" r="4.1"/>
<path class="st0" d="M1.7,86.9C2,82.2,3.5,77.6,6,73.5c3.6-5.8,8.7-9.2,15.5-10.4c0.2,0,0.3,0,0.3,0.2l0.2,1.3c0,0,0,0.1-0.1,0.1
	c-6.2,1.1-11.3,4.4-14.5,9.8c-0.9,1.6-1.8,3.3-2.4,5.3c-2,5.6-2.1,11.1-0.4,16.7c0.5,1.6,1.2,3.3,2,4.9c2.5,5.1,6.9,8.8,12.2,11
	c0,0,0,0.1,0,0.2l-0.6,1.4c0,0,0,0-0.1,0l0,0c-5.3-2.2-9.9-5.9-12.7-11c-1-1.8-1.8-3.7-2.4-5.8c-1-3.5-1.4-6.9-1.2-10.4L1.7,86.9z"
	/>
<path class="st0" d="M26.6,69.5h1.6c0,0.1,0,0.1,0,0.2l-2.6,38.8l0,0H24c0-0.1,0-0.1,0-0.2L26.6,69.5L26.6,69.5z"/>
<circle class="st3" cx="135.6" cy="83.4" r="5.1"/>
<path class="st0" d="M144.9,91.7c-0.1,0.2-0.2,0.5-0.3,0.7c0,0,0,0-0.1,0l0,0l-3.4-3.1c0,0,0,0,0-0.1l0,0l1-1.1c0,0,0.1,0,0.2,0
	c0.9,0.8,1.8,1.6,2.8,2.5c0.4,0.4,0.1,0.8,0,1.1H144.9z"/>
<path class="st2" d="M136.6,108.3c-0.4,0-0.8,0-1.2,0c0,0-0.1,0-0.1-0.1V91.4l0,0h1.5h0.1l0,0c0,5.5,0,10.9,0,16.2
	c0,0.2,0,0.3,0,0.5C136.9,108.1,136.7,108.3,136.6,108.3z"/>
<path class="st0" d="M148.3,95.4c0.2-0.4,0.4-0.8,0.5-1.2c0,0,0,0,0.1,0l0,0l19.3,17.1v0.1l0,0l-1,1.1c0,0-0.1,0-0.2,0
	c-6.3-5.6-12.5-11.1-18.6-16.5C148.2,95.8,148.2,95.6,148.3,95.4z"/>
<circle class="st5" cx="24.6" cy="115.2" r="4.1"/>
<circle class="st5" cx="136.7" cy="115.2" r="4"/>
<circle class="st4" cx="171.9" cy="116.3" r="3"/>
<path class="st0" d="M165.9,117.1l-22.3-1l0,0v-1.6l0,0l0,0l22.3,0.9l0,0V117.1L165.9,117.1L165.9,117.1L165.9,117.1z"/>
<path class="st6" d="M62.7,87.8L62.7,87.8H56l0,0l-1.4,4.7l0,0h-4.5l0,0v-1.2c0-0.1,0-0.2,0-0.3l6.7-19.7l0,0h6.3l0,0
	c2.2,6.4,4.5,12.9,6.7,19.5c0,0.2,0.1,0.5,0.1,0.7c0,0.3,0,0.6,0,1l0,0h-5.5c0,0,0,0-0.1,0l-1.4-4.7H62.7z M57.2,83.7L57.2,83.7h4.3
	l0,0l0,0l-2.1-7l0,0l0,0l-2.1,7H57.2z"/>
<path class="st6" d="M86.5,71.3c0.5,0,1.1,0.2,1.3,0.8c0.1,0.4,0.2,0.8,0.2,1.2v19.3l0,0h-5.4l0,0V71.4l0,0l0,0c1.3,0,2.7,0,4,0
	L86.5,71.3z"/>
<path class="st6" d="M71.8,76.4v-3.9l0,0h5.3l0,0l0,0v4l0,0H80l0,0l0,0v3.4l0,0h-2.9l0,0V87c0,0.9,0.1,1.8,1.2,2
	c0.6,0.1,1.2,0,1.8,0h0.1v3l0,0c-1.4,0.4-2.9,0.5-4.5,0.3c-1.9-0.2-3.5-1.1-3.9-3.1c0-0.4-0.1-0.9-0.1-1.5c0-2.7,0-5.4,0-8.1l0,0
	h-1.6c0,0,0,0-0.1,0l0,0v-3.4l0,0h1.6l0,0L71.8,76.4z"/>
<path class="st6" d="M99.8,91.2L99.8,91.2C99.8,91.2,99.8,91.2,99.8,91.2c-1.4,1.5-3.6,1.9-5.6,1.6c-1.8-0.3-3.3-1.4-3.8-3.1
	c-0.3-1.1-0.3-2.1,0-3.1c1-3.8,6-3.9,9.1-3.3c0,0,0,0,0.1,0l0,0c0-0.4,0-0.8,0-1.2c0-1.2-0.8-1.7-1.9-1.8c-1.7-0.2-3.1,0.2-4.4,1
	c-0.1,0-0.3,0.1-0.4,0.1c-0.4,0-0.9,0-1.3,0l0,0v-3.6l0,0c3.1-1.2,6.2-1.6,9.4-1c0.5,0,1.1,0.3,1.7,0.6c1.3,0.6,2.1,1.9,2.4,3.3
	c0,0.5,0.1,1.1,0.1,1.7c0,3.5,0,7,0,10.4s0,0,0,0c-1.2,0-2.2,0-3.2,0s-1.6-0.5-1.9-1.4L99.8,91.2z M96.8,89.6c1,0.2,1.8-0.2,2.6-0.8
	c0,0,0,0,0-0.2v-2.7l0,0c-1.2-0.2-3.7-0.5-4,1.3C95.2,88.3,95.6,89.4,96.8,89.6z"/>
<path class="st6" d="M115,88.1c0-0.5-0.1-0.9-0.6-1.1c-0.4-0.2-0.8-0.3-1.2-0.3c-1.3-0.2-2.4-0.3-3.5-0.8c-2.1-0.8-2.8-2.5-2.8-4.7
	c0-2.6,1.8-4.2,4.2-4.8c1.2-0.3,2.8-0.3,4.5-0.2c1.2,0.1,2.3,0.4,3.4,0.9l0,0v3.4l0,0h-1.5c-0.1,0-0.2,0-0.3,0
	c-1.3-0.8-2.8-1.1-4.4-0.9c-0.6,0-1.2,0.5-1.1,1.1c0,0.7,0.9,0.9,1.5,1c2.7,0.5,6.2,0.5,6.7,4.2c0.3,2.3-0.2,4.4-2.3,5.6
	c-0.8,0.5-1.7,0.8-2.8,0.9c-2.7,0.3-5.3,0-7.8-1.1c0,0,0,0,0-0.1v-3.5l0,0h1.7c0,0,0.1,0,0.2,0c1.3,1.1,3.2,1.3,4.9,1
	c0.5,0,1.1-0.4,1.1-0.9L115,88.1z"/>
<path class="st7" d="M62.1,97.1c1.6,0.8,3.4,1.3,5.2,1.4l0,0v21.7c0,0.3-0.2,0.5-0.5,0.6c-1.5,0.5-3.1,1-4.8,1.6l0,0l0,0V97.2
	C62,97.2,62,97.2,62.1,97.1L62.1,97.1z"/>
<path class="st7" d="M115.6,106.7L115.6,106.7L115.6,106.7v-6.8c0-0.3,0.1-0.4,0.4-0.5l4.9-1.6l0,0l0,0v24c0,0,0,0,0,0.1
	c-2.4,0.5-4.7,0.8-7,1c-1,0-2.2,0-3.4-0.3c-2.3-0.5-3.9-1.9-4.4-4.3c-0.4-2-0.4-4.1-0.1-6.3c0.6-4.3,4-5.4,7.8-5.3
	c0.6,0,1.1,0.1,1.7,0.2L115.6,106.7z M111.9,110.8c-0.4,0.2-0.6,0.5-0.6,0.9c0,2.2,0,4.2,0,6c0,0.4,0.2,0.8,0.6,0.9
	c1,0.4,2.2,0.2,3.3,0c0.3,0,0.4-0.2,0.4-0.5v-6.8c0-0.2,0-0.5-0.3-0.6C114.2,110.4,112.9,110.3,111.9,110.8L111.9,110.8z"/>
<path class="st7" d="M51.7,118.3c0.4,0.1,0.8,0.2,1.3,0.1c2.1-0.2,4.2-0.4,6.3-0.9l0,0c0,1.2,0,2.5,0,3.8c0,0.4,0,0.8-0.5,0.8
	c-1.1,0.2-2.1,0.3-3,0.4c-2,0.2-3.8,0.2-5.5-0.1c-2.5-0.4-4.7-2.2-5.2-4.7c0-0.5-0.1-1.3-0.1-2.6c0-2.8,0-5.5,0-8.2s0-1.9,0.2-2.5
	c0.6-2.8,2.8-4.2,5.5-4.7c2.9-0.5,5.7,0,8.6,0.5l0,0v4.4c0,0,0,0.1-0.1,0.1l0,0c-2-0.4-4-0.7-6.1-0.8c-1,0-2.1,0-2.5,1.1
	s-0.2,0.8-0.2,1.3c0,3.6,0,6.7,0,9.1c0,1.1,0,2.2,1.1,2.6L51.7,118.3z"/>
<path class="st7" d="M97.8,121.5C97.8,121.5,97.8,121.5,97.8,121.5L97.8,121.5c-1.3,0.5-2.4,0.8-3.4,1.1c-1.1,0.3-2.5,0.4-3.6,0
	c-2.9-0.9-2.8-4.8-2.8-7.2c0-2.7,0-5.5,0-8.3l0,0h5.2l0,0v9.7c0,1,0.4,2,1.7,1.6c0.9-0.3,1.8-0.6,2.4-1c0.2,0,0.2-0.2,0.2-0.4
	c0-2.8,0-5.7,0-8.8c0-0.3,0.2-0.5,0.4-0.6l4.8-1.7l0,0l0,0v16.5l0,0h-4.8l0,0l-0.3-0.9L97.8,121.5z"/>
<path class="st7" d="M79.3,122.8c-3.2,0.3-8.1-0.2-9-4c-0.1-0.5-0.2-1.1-0.1-2c0-1.4,0-2.8,0-4.1c0-1,0-1.7,0.2-2.2
	c0.6-2.2,2.8-3.3,4.9-3.7c3.5-0.6,9.6-0.2,10.1,4.5c0,0.6,0,1.3,0,2c0,1.9,0,3.5,0,4.7C85.4,121.2,82.1,122.6,79.3,122.8L79.3,122.8
	z M80.1,112.4c0-1.7-2.4-1.7-3.5-1.3c-0.6,0.2-1,0.6-1,1.3v4.7c0,0.6,0.3,1,0.8,1.2c0.9,0.4,1.8,0.4,2.8,0c0.6-0.2,0.9-0.7,0.9-1.3
	C80.1,115.5,80.1,114,80.1,112.4z"/>
<path class="st7" d="M108.8,127.4c1.6,0.3,3.2,0.6,4.7,0.6c0.2,0,0.5,0,0.5,0.3c0,1.8,0,3.5,0,5.3c0,0,0,0.1-0.1,0.1h-5.1l0,0V127.4
	L108.8,127.4C108.8,127.4,108.8,127.4,108.8,127.4z"/>
<path class="st7" d="M59.2,147.7c-1,2.4-3.2,3.6-5.8,3.8s-5.2-0.1-7.8-0.6c-0.2,0-0.4,0-0.5-0.1l0,0v-4.4l0,0l0,0
	c1.6,0.4,3.3,0.6,4.9,0.7c1,0,2,0,3-0.3c1.7-0.5,1.6-2.4,0.3-3.3c-1.3-0.9-2.7-1.9-4.3-3.1c-0.7-0.5-1.4-1-2-1.5
	c-2.1-1.6-2.4-4.9-1.3-7.1c1.2-2.3,3.6-3.1,6-3.2c2.3-0.1,4.6,0,6.8,0.7c0.3,0,0.4,0.2,0.4,0.5v4l0,0l0,0c-1.2-0.2-2.5-0.4-3.8-0.6
	c-1-0.2-2-0.2-2.9,0c-0.8,0.1-1.9,0.6-1.6,1.7c0.2,0.5,0.8,1,1.2,1.4c1.9,1.5,3.9,2.9,5.9,4.3c1.4,1,2.1,2.4,2.1,4.2
	c0,1.2-0.2,2.2-0.5,3.1L59.2,147.7z"/>
<path class="st7" d="M135.8,145.1c-0.2,1,0.2,2,1.2,2.3c0.3,0.1,1,0.1,1.8,0c1.7-0.2,3.4-0.4,5.1-0.5l0,0v3.9l0,0
	c-1.8,0.3-3.5,0.6-5.1,0.7c-2.8,0.2-6.9-0.2-8-3.3c-0.2-0.5-0.3-1.3-0.3-2.2c0-1.7,0-3.5,0-5.4c0-0.8,0-1.5,0.3-2
	c0.5-1.6,1.8-2.5,3.4-2.9c2-0.6,4-0.6,6-0.2c1,0.2,1.9,0.5,2.5,0.9c1.2,0.8,1.9,2,1.9,3.7c0,1.3,0,2.9,0,4.8l0,0h-8.7c0,0,0,0-0.1,0
	L135.8,145.1z M135.8,141.6h3.7c0,0,0.1,0,0.1-0.1l0,0v-0.8c0-0.8-0.7-1.4-1.6-1.4h-0.7c-0.9,0-1.6,0.6-1.6,1.4l0,0v0.8
	C135.7,141.5,135.7,141.6,135.8,141.6L135.8,141.6z"/>
<path class="st7" d="M67.1,145.1c0,1.1,0.3,2.2,1.4,2.4c0.3,0,0.7,0,1.5,0c1.8-0.2,3.5-0.4,5.2-0.5l0,0v3.5c0,0.2-0.2,0.3-0.3,0.4
	c-1.6,0.3-3.1,0.5-4.5,0.6c-2.8,0.2-7.2,0-8.4-3.2c-0.2-0.5-0.3-1.2-0.3-2.2c0-2.2,0-4.2,0-6.2c0-2.5,2.2-4,4.4-4.4
	c1.3-0.2,2.7-0.3,4.1-0.2c2.4,0.2,4.7,1.1,5.4,3.5c0.2,0.6,0.2,1.5,0.2,2.6c0,1.2,0,2.3,0,3.4c0,0,0,0.1-0.1,0.1H67l0,0L67.1,145.1z
	 M67.2,141.5h3.6c0.1,0,0.2,0,0.2-0.2l0,0v-0.8c0-0.8-0.8-1.4-1.8-1.4h-0.3c-1,0-1.9,0.6-1.9,1.4l0,0v0.8
	C67,141.4,67,141.5,67.2,141.5L67.2,141.5L67.2,141.5z"/>
<path class="st7" d="M124.2,139.5c-0.8,0-1.7,0.2-1.8,1.2c0,2.2,0,3.9,0,5.3c0,0.7,0.3,1.1,1,1.2c0.8,0.2,1.6,0.2,2.4,0
	c0.9-0.2,1.8-0.3,2.8-0.6l0,0l0,0c0,0.9,0,1.8,0,2.7c0,0.3,0,0.5,0,0.7c0,0.4,0,0.8-0.6,0.9c-4.2,0.9-10.5,1.2-11-4.6
	c-0.2-1.6-0.2-3.2,0-5c0-1.1,0.2-1.9,0.3-2.4c0.6-2.1,2.5-3.2,4.6-3.6c2.1-0.4,4.4-0.1,6.5,0.5c0.1,0,0.2,0.2,0.2,0.3v3.8l0,0l0,0
	c-1.4-0.2-2.6-0.4-3.7-0.6c-0.2,0-0.4,0-0.6,0L124.2,139.5z"/>
<path class="st7" d="M154.4,139.4c-0.5-0.1-2.1-0.3-2.4,0.3c-0.3,0.7,1,1.6,1.5,1.9c1,0.6,1.8,1.1,2.6,1.7c1.4,1,2.1,2.6,1.7,4.3
	c-0.7,3.6-4.4,4.3-7.4,3.9c-1.2-0.2-2.4-0.4-3.5-0.6c0,0,0,0,0-0.1v-4l0,0c0.9,0.2,1.7,0.4,2.6,0.6c0.8,0.2,1.6,0.2,2.3,0
	c0.2,0,0.4-0.2,0.6-0.4c0.4-0.4,0.2-1-0.2-1.4c-1.1-0.8-2.3-1.6-3.5-2.3c-1.9-1.1-2.3-3.1-1.7-5.1c0.6-2.3,3.1-2.9,5.2-3
	c1.6,0,3.4,0.2,5.2,0.7l0,0v4l0,0l0,0c-1.1-0.3-2.1-0.5-2.9-0.7L154.4,139.4z"/>
<path class="st7" d="M84.1,137.4L84.1,137.4L84.1,137.4c1.4-1.5,3.2-2.2,5.4-2l0,0v4.4l0,0c-1.7,0-3.2,0.5-4.5,1.2
	c-0.8,0.4-0.9,0.9-0.9,1.8c0,2.8,0,5.5,0,8.2l0,0h-5.2l0,0v-15.2c0,0,0,0,0-0.1s0-0.1,0-0.1h4.8l0,0l0.3,1.6L84.1,137.4z"/>
<path class="st7" d="M98.8,144.9c0.2-1.8,0.7-3.5,1.4-5.3c0.5-1.3,1.1-2.6,1.6-3.9c0,0,0,0,0.1,0h5.1l0,0l0,0l-5.7,15.1
	c0,0.2-0.3,0.4-0.5,0.4h-4.9l0,0l-5.4-15.4l0,0H96l0,0c0.4,1.2,0.9,2.4,1.3,3.7c0.6,1.8,1.1,3.6,1.2,5.5c0,0,0,0,0,0.1l0,0l0,0
	L98.8,144.9z"/>
<path class="st7" d="M108.8,135.7h5.2l0,0v15.4l0,0h-5.2l0,0V135.7L108.8,135.7z"/>
</svg>
