<svg xmlns="http://www.w3.org/2000/svg" xmlns:xlink="http://www.w3.org/1999/xlink" viewBox="0 0 649.63 140.57"><defs><style>.cls-1{fill:none;}.cls-2{clip-path:url(#clip-path);}.cls-3{fill:#2ebdef;}.cls-4{fill:#fff;fill-rule:evenodd;}.cls-5{fill:#0e447e;}</style><clipPath id="clip-path" transform="translate(-91.27 -225.5)"><rect class="cls-1" width="841.89" height="595.28"/></clipPath></defs><g id="Calque_2" data-name="Calque 2"><g id="Calque_1-2" data-name="Calque 1"><g class="cls-2"><path class="cls-3" d="M176.23,235c-41.66,22.75-83.35-10.26-84.94,55.54-.78,32.24,35,67.56,84.94,74.49,52.42,7.29,84.93-25,84.93-74.49S224.92,208.41,176.23,235" transform="translate(-91.27 -225.5)"/><path class="cls-4" d="M182.77,311.88c1.62,2.46,7.37,19.05,9.83,24.18,4.9,10.15,17.41,9.16,22.46,3.59,6.93-7.63,1.5-17-1.78-25.18-2.33-5.8-16.82-44.38-19.57-48.61a13.36,13.36,0,0,0-11.39-5.52,12.73,12.73,0,0,0-11.21,6.13c-5.9,9.48,2.86,17.55,3.75,26.2,1.1,10.72-1.16,19.93-4,29.3-1.48-1.4-8.87-21.62-10.25-25.19-3.3-8.48-6.62-16.89-10-25.46-1.88-4.78-3.63-7.88-7.93-9.76-4.7-2-10.66-1.38-14.08,1.36-8.94,7.17-4.27,16-.48,25.61q5,12.71,10,25.43c2.26,5.8,7.54,21.1,10.44,25,6.18,8.21,19.21,4.54,24-2,4.58-6.23,6.39-10.19,8.51-18.08.57-2.14.77-5.28,1.72-7" transform="translate(-91.27 -225.5)"/><path class="cls-4" d="M225.14,287.15A19.88,19.88,0,0,1,225,296a10.11,10.11,0,0,1-4,6.26c-.86.72-2.27,1.47-2.65,2.31-.84,1.86.33,2.79,2,2.93,9.18.75,21.94-16.83,19.88-31.93-2.15-15.8-16.57-17.67-23.29-12.34-7.21,5.72-7.43,22.74,8.15,23.95" transform="translate(-91.27 -225.5)"/><path class="cls-5" d="M291.83,291.14v1.25q0,10.39,10.94,16.57a21.24,21.24,0,0,0,7.5,1.56h.46q11,0,16.88-11.1a29.22,29.22,0,0,0,1.56-5.62L329,264.5a.28.28,0,0,1,.32-.31h8.43a.28.28,0,0,1,.32.31v27.58q0,5.12,5.15,11.09a18.88,18.88,0,0,0,13.44,5.63q11.2,0,17.19-11.09a18.51,18.51,0,0,0,1.4-6.25v-27a.28.28,0,0,1,.31-.31h8.28a.28.28,0,0,1,.32.31v16.18q0,4.29.15,11.4a29.09,29.09,0,0,1-3.43,11.41q-9.08,14.22-23.91,14.22h-.62q-13,0-22.35-11.57a26.7,26.7,0,0,1-16.09,12.19,20.21,20.21,0,0,1-6.87,1.09h-.94q-13.39,0-22.5-12.18a26.79,26.79,0,0,1-4.69-14.69V264.8a.28.28,0,0,1,.32-.31h8.28a.28.28,0,0,1,.31.31Z" transform="translate(-91.27 -225.5)"/><path class="cls-5" d="M419.16,265.05h1.41q12.18,0,21.09,10.78,5.47,7.55,5.47,15.47v2.19c0,1.87-.15,2.81-.47,2.81H401.35v.16q1.72,6.65,5.94,10a17.93,17.93,0,0,0,12.19,4.84h.78q8.36,0,14.68-7.19h9.38q-3.79,8.91-14.06,13.44a27.27,27.27,0,0,1-10.16,2h-.31q-14.49,0-23.44-13.44a28.72,28.72,0,0,1-3.75-13.9q0-14.25,13.13-23.28a27.15,27.15,0,0,1,13.43-3.91m-17.81,23.13q31,.15,37.19.15v-.15q-2.39-8.16-8-11.72a19.34,19.34,0,0,0-10-3.13H419q-8.56,0-15,8.44a20.93,20.93,0,0,0-2.66,6.41" transform="translate(-91.27 -225.5)"/><path class="cls-5" d="M479.59,319.58a28.87,28.87,0,0,1-11.41-2.65q-8.87-4.85-11.87-11.41h10.94a18.6,18.6,0,0,0,13.12,5.16h.16c3,0,6-.12,9.06-.34s5.38-1.93,7.07-5.13q.93-1.65-.28-4.06-.88-1.84-9.06-3.17-2.73-.47-6.25-.86-14.1-1.59-19.6-4.57l-3.6-2.65q-5.46-6.13-.62-13.44,9.4-12,22-12h1.87a25.25,25.25,0,0,1,11.56,3A27.55,27.55,0,0,1,506,281.77l-.31.16h-9.37q-6.65-8.6-15.47-8.6h-1.25q-14.54,1.69-15.94,10.16,2.27,3.28,15.53,5.12T501,294.19q7.59,4.53,3.29,15.94-9.22,10.62-23.75,9.45Z" transform="translate(-91.27 -225.5)"/><path class="cls-5" d="M524.31,319.27a.27.27,0,0,1-.31.31h-8.28a.27.27,0,0,1-.31-.31v-18q0-6.41-.16-9.37.16-3,.16-9.38V249.74a.3.3,0,0,1,.31-.31H524c.21,0,.31.13.31.31v21.72q8.28-7.18,18.28-7.19h.63q15.15,0,24.22,14.69a28.06,28.06,0,0,1,3.12,12.19v28.12a.27.27,0,0,1-.31.31h-8.44a.27.27,0,0,1-.31-.31l.15-29.22q-1-6-3.59-9.22-6.13-7.65-15.16-7.65-11.21,0-17.18,11.09a18.32,18.32,0,0,0-1.41,6.25v28.75Z" transform="translate(-91.27 -225.5)"/><path class="cls-5" d="M608.21,264.27h.94q13.4,0,22.5,12.19a26.76,26.76,0,0,1,4.69,14.68v1.57q0,13.47-13,22.81a27.44,27.44,0,0,1-13.59,4.06h-2.35q-10.18,0-19.53-9.37-6.72-8.47-6.72-17.81v-.79q0-13.2,11.57-22.18a26.69,26.69,0,0,1,15.46-5.16m-18.12,27.19v.94q0,9.84,9.53,15.93a17.48,17.48,0,0,0,8.28,2.35h1.56q8.47,0,14.53-7.82a18,18,0,0,0,3.44-10.31V291.3q0-10.4-10.94-16.56a21.24,21.24,0,0,0-7.5-1.56h-.46a18.26,18.26,0,0,0-12.82,5.31q-5.62,5.86-5.62,13" transform="translate(-91.27 -225.5)"/><path class="cls-5" d="M677.19,274a19,19,0,0,0-5.31-.78q-15.39.39-18,13.28l-.62,9.06v23.75a.27.27,0,0,1-.31.31H644.7a.28.28,0,0,1-.32-.31v-18q0-5.55-.15-10.15c.1-.86.15-2.95.15-6.25q5.36-22.11,31.1-20.63h.62c.36,0,.73,0,1.09,0Z" transform="translate(-91.27 -225.5)"/><path class="cls-5" d="M712.93,265.05h1.41q12.18,0,21.09,10.78,5.48,7.55,5.47,15.47v2.19c0,1.87-.16,2.81-.47,2.81H695.12v.16q1.73,6.65,5.94,10a17.93,17.93,0,0,0,12.19,4.84H714q8.36,0,14.68-7.19h9.38Q734.29,313,724,317.55a27.27,27.27,0,0,1-10.16,2h-.31q-14.49,0-23.44-13.44a28.72,28.72,0,0,1-3.75-13.9q0-14.25,13.13-23.28a27.15,27.15,0,0,1,13.43-3.91m-17.81,23.13q31.05.15,37.19.15v-.15q-2.38-8.16-8-11.72a19.34,19.34,0,0,0-10-3.13h-1.56q-8.56,0-15,8.44a20.68,20.68,0,0,0-2.66,6.41" transform="translate(-91.27 -225.5)"/><path class="cls-5" d="M287.93,329.09a9.77,9.77,0,0,1,7.44,2.91,9.43,9.43,0,0,1,0,12.76,9.76,9.76,0,0,1-7.43,2.9h-5V329.09Zm-3.58,1.43v15.7h3.58a8.45,8.45,0,0,0,6.38-2.45,7.88,7.88,0,0,0,0-10.79,8.41,8.41,0,0,0-6.37-2.46Z" transform="translate(-91.27 -225.5)"/><path class="cls-5" d="M307.59,330.54h-1.42v-1.43h1.42Zm0,17.12h-1.42V333.38h1.42Z" transform="translate(-91.27 -225.5)"/><path class="cls-5" d="M330.09,335.79v-2.41h1.43v11.41a7.85,7.85,0,0,1-7.85,7.86,7.54,7.54,0,0,1-7.19-4.7l1.3-.57a6.35,6.35,0,0,0,2.34,2.86,6.43,6.43,0,0,0,3.55,1,6.42,6.42,0,0,0,6.42-6.43v-.27a7.27,7.27,0,0,1-6.42,3.14,7.92,7.92,0,0,1-4.57-1.3,6.93,6.93,0,0,1-2.58-3.16,7.91,7.91,0,0,1,0-6.09A7,7,0,0,1,319.1,334a8.06,8.06,0,0,1,4.57-1.28,7.27,7.27,0,0,1,6.42,3.12m-2.67-.66a6.68,6.68,0,0,0-3.75-1,6.57,6.57,0,0,0-3.74,1,5.54,5.54,0,0,0-2.1,2.53,6.62,6.62,0,0,0,0,5,5.61,5.61,0,0,0,2.1,2.54,6.64,6.64,0,0,0,3.74,1,6.75,6.75,0,0,0,3.75-1,5.64,5.64,0,0,0,2.08-2.54,6.5,6.5,0,0,0,0-5,5.56,5.56,0,0,0-2.08-2.53" transform="translate(-91.27 -225.5)"/><path class="cls-5" d="M341.53,330.54H340.1v-1.43h1.43Zm0,17.12H340.1V333.38h1.43Z" transform="translate(-91.27 -225.5)"/><polygon class="cls-5" points="262.09 103.59 262.09 107.88 264.94 107.88 264.94 109.26 262.09 109.26 262.09 122.16 260.65 122.16 260.65 109.26 257.8 109.26 257.8 107.88 260.65 107.88 260.65 103.59 262.09 103.59"/><path class="cls-5" d="M376.63,335a7.23,7.23,0,0,1,.88,1v-2.62h1.43v14.28h-1.43V345a7.23,7.23,0,0,1-.88,1,7.85,7.85,0,1,1,0-11.11m.88,5.55a6.42,6.42,0,1,0-1.88,4.55,6.18,6.18,0,0,0,1.88-4.55Z" transform="translate(-91.27 -225.5)"/><rect class="cls-5" x="296.37" y="103.59" width="1.43" height="18.57"/><polygon class="cls-5" points="319.07 122.16 320.93 102.92 329.12 115.6 337.3 102.92 339.17 122.16 337.77 122.16 336.21 107.22 329.12 118.15 322 107.22 320.47 122.16 319.07 122.16"/><path class="cls-5" d="M451.12,335a7.23,7.23,0,0,1,.88,1v-2.62h1.43v14.28H452V345a7.23,7.23,0,0,1-.88,1,7.85,7.85,0,1,1,0-11.11m.88,5.55a6.42,6.42,0,1,0-1.88,4.55,6.18,6.18,0,0,0,1.88-4.55Z" transform="translate(-91.27 -225.5)"/><path class="cls-5" d="M473.19,335.87a5.77,5.77,0,0,0-8.34,0,6.58,6.58,0,0,0-1.68,4.64v7.15h-1.42V333.38h1.42v2.33a7.1,7.1,0,0,1,.65-.8,7.17,7.17,0,0,1,10.41,0,7.43,7.43,0,0,1,.82,1l-1.19.78a6.29,6.29,0,0,0-.67-.87" transform="translate(-91.27 -225.5)"/><path class="cls-5" d="M494.9,333.38l-6.37,4.95a6.4,6.4,0,0,1,6.34,6.43v2.9h-1.42v-2.9a4.81,4.81,0,0,0-1.47-3.54,4.76,4.76,0,0,0-3.52-1.46h-1.77l-3.23,2.5v5.4H482V329.09h1.43v11.37l9.11-7.08Z" transform="translate(-91.27 -225.5)"/><path class="cls-5" d="M514.08,347.35a7.79,7.79,0,0,1-3.88,1,7.85,7.85,0,1,1,0-15.7,7.88,7.88,0,0,1,3.88,1,7.71,7.71,0,0,1,2.86,2.81l.38.62-.63.37L505,344.24a6.7,6.7,0,0,0,.69.81,6.43,6.43,0,0,0,7.7,1.05,6.11,6.11,0,0,0,2.36-2.29l1.22.72a7.74,7.74,0,0,1-2.86,2.82M504.27,343l11.05-6.38a6.53,6.53,0,0,0-2-1.7,6.32,6.32,0,0,0-3.16-.83,6.42,6.42,0,0,0-6.42,6.43,6.38,6.38,0,0,0,.49,2.48" transform="translate(-91.27 -225.5)"/><polygon class="cls-5" points="437.03 103.59 437.03 107.88 439.88 107.88 439.88 109.26 437.03 109.26 437.03 122.16 435.59 122.16 435.59 109.26 432.74 109.26 432.74 107.88 435.59 107.88 435.59 103.59 437.03 103.59"/><path class="cls-5" d="M540.12,330.54H538.7v-1.43h1.42Zm0,17.12H538.7V333.38h1.42Z" transform="translate(-91.27 -225.5)"/><path class="cls-5" d="M548.57,333.38H550v2.48a7.58,7.58,0,0,1,.76-.92,7.5,7.5,0,0,1,10.75,0,7.75,7.75,0,0,1,2.19,5.58v7.14h-1.42v-7.14a6.4,6.4,0,0,0-1.79-4.6,6.09,6.09,0,0,0-8.7,0,6.32,6.32,0,0,0-1.79,4.59v7.15h-1.43Z" transform="translate(-91.27 -225.5)"/><path class="cls-5" d="M585.81,335.79v-2.41h1.44v11.41a7.87,7.87,0,0,1-7.85,7.86,7.54,7.54,0,0,1-7.2-4.7l1.3-.57a6.09,6.09,0,0,0,5.9,3.84,6.42,6.42,0,0,0,6.41-6.43v-.27a7.25,7.25,0,0,1-6.41,3.14,7.93,7.93,0,0,1-4.58-1.3,6.93,6.93,0,0,1-2.58-3.16,7.91,7.91,0,0,1,0-6.09,7,7,0,0,1,2.58-3.16,8.07,8.07,0,0,1,4.58-1.28,7.26,7.26,0,0,1,6.41,3.12m-2.67-.66a7.26,7.26,0,0,0-7.49,0,5.54,5.54,0,0,0-2.1,2.53,6.62,6.62,0,0,0,0,5,5.61,5.61,0,0,0,2.1,2.54,7.39,7.39,0,0,0,7.49,0,5.64,5.64,0,0,0,2.08-2.54,6.5,6.5,0,0,0,0-5,5.56,5.56,0,0,0-2.08-2.53" transform="translate(-91.27 -225.5)"/><path class="cls-5" d="M611.74,341.87l-2.68,5.79h-1.57l8.28-17.91.64-1.38.65,1.38,8.29,17.91h-1.57l-2.68-5.79Zm8.77-1.28-4.1-8.84-4.08,8.84Z" transform="translate(-91.27 -225.5)"/><path class="cls-5" d="M646.16,335.79v-2.41h1.44v11.41a7.87,7.87,0,0,1-7.85,7.86,7.8,7.8,0,0,1-4.33-1.22,7.72,7.72,0,0,1-2.86-3.48l1.29-.57a6.11,6.11,0,0,0,5.9,3.84,6.42,6.42,0,0,0,6.41-6.43v-.27a7.25,7.25,0,0,1-6.41,3.14,7.9,7.9,0,0,1-4.57-1.3,6.93,6.93,0,0,1-2.58-3.16,7.91,7.91,0,0,1,0-6.09,7,7,0,0,1,2.58-3.16,8,8,0,0,1,4.57-1.28,7.26,7.26,0,0,1,6.41,3.12m-2.67-.66a7.26,7.26,0,0,0-7.49,0,5.54,5.54,0,0,0-2.1,2.53,6.62,6.62,0,0,0,0,5,5.61,5.61,0,0,0,2.1,2.54,7.39,7.39,0,0,0,7.49,0,5.66,5.66,0,0,0,2.09-2.54,6.62,6.62,0,0,0,0-5,5.58,5.58,0,0,0-2.09-2.53" transform="translate(-91.27 -225.5)"/><path class="cls-5" d="M667.06,347.35a7.72,7.72,0,0,1-3.87,1,7.85,7.85,0,1,1,0-15.7,7.82,7.82,0,0,1,3.87,1,7.71,7.71,0,0,1,2.86,2.81l.38.62-.62.37L658,344.24a6.7,6.7,0,0,0,.69.81,6.18,6.18,0,0,0,4.55,1.88,6.25,6.25,0,0,0,3.16-.83,6.18,6.18,0,0,0,2.36-2.29l1.21.72a7.74,7.74,0,0,1-2.86,2.82M657.25,343l11-6.38a6.42,6.42,0,0,0-5.11-2.53,6.42,6.42,0,0,0-6.43,6.43,6.57,6.57,0,0,0,.49,2.48" transform="translate(-91.27 -225.5)"/><path class="cls-5" d="M677.91,333.38h1.42v2.48a7.66,7.66,0,0,1,.77-.92,7.5,7.5,0,0,1,10.75,0,7.75,7.75,0,0,1,2.19,5.58v7.14h-1.43v-7.14a6.39,6.39,0,0,0-1.78-4.6,6.1,6.1,0,0,0-8.71,0,6.36,6.36,0,0,0-1.79,4.59v7.15h-1.42Z" transform="translate(-91.27 -225.5)"/><path class="cls-5" d="M712,334.92a6.35,6.35,0,0,0-3.16-.83,6.4,6.4,0,0,0-6.42,6.43,6.4,6.4,0,0,0,6.42,6.41,6.35,6.35,0,0,0,3.16-.83,6.18,6.18,0,0,0,2.36-2.29l1.22.73a7.84,7.84,0,0,1-6.74,3.83,7.85,7.85,0,1,1,0-15.7,7.82,7.82,0,0,1,3.87,1,7.66,7.66,0,0,1,2.87,2.81l-1.22.73a6.35,6.35,0,0,0-2.36-2.3" transform="translate(-91.27 -225.5)"/><path class="cls-5" d="M738.49,344.82a7.73,7.73,0,0,1-2.15,5.52,7.16,7.16,0,0,1-5.41,2.3,7.24,7.24,0,0,1-4.21-1.28A7.38,7.38,0,0,1,724,347.9l1.32-.53a6,6,0,0,0,2.24,2.83,6,6,0,0,0,3.41,1,5.78,5.78,0,0,0,4.39-1.87,6.41,6.41,0,0,0,1.75-4.52V343a7,7,0,0,1-.77.93,7.5,7.5,0,0,1-10.75,0,7.75,7.75,0,0,1-2.19-5.58v-5h1.43v5a6.41,6.41,0,0,0,1.78,4.6,6.12,6.12,0,0,0,8.71,0,6.42,6.42,0,0,0,1.79-4.6v-5h1.42Z" transform="translate(-91.27 -225.5)"/></g></g></g></svg>